<?xml version="1.0" encoding="utf-8"?>
<!-- Svg Vector Icons : http://www.onlinewebfonts.com/icon -->
<!DOCTYPE svg PUBLIC "-//W3C//DTD SVG 1.1//EN" "http://www.w3.org/Graphics/SVG/1.1/DTD/svg11.dtd">
<svg version="1.1" xmlns="http://www.w3.org/2000/svg" xmlns:xlink="http://www.w3.org/1999/xlink" x="0px" y="0px" viewBox="0 0 1000 1000" enable-background="new 0 0 1000 1000" xml:space="preserve">
<metadata> Svg Vector Icons : http://www.onlinewebfonts.com/icon </metadata>
<g><path d="M985.2,117.8c-17.8,11.8-88.3,39.7-185.7,61.6c-91.7,20.6-215.2,35.1-332.8,46.3c-123.3,11.7-296.9,16.1-425-10.7c-10.8-2.3-17.7,1.3-16.7,8.5c0.7,5.1,1.9,9.8,6.1,10.9c5.7,1.5,8,7.1,5.2,14.8c-4.5,12.4-18.4,18.9-25.6,27.5c-7.4,8.8,38.1,20.1,59.7,16.5c25.7-4.3-7.2,15.1,32.4,15.1c23.2,0,7.7,42.4,25.2,43.1c3.8,0.2,42.5-2.1,99.3-5.7c11-0.7,19.9,4.2,19.9,11c0,6.8,2.7,13,6.1,13.8c3.4,0.8,6.6,5.4,7.1,10.2c0.5,4.8-5.1,11.4-12.7,14.8c-7.6,3.4-12.8,9.3-11.7,13.3c1.1,3.9-6.9,6.9-17.9,6.6l-78.1-2c-11-0.3-18.6,8.3-16.9,19.2l1.1,7.3c1.7,10.9,11.9,19.6,22.9,19.6l88.3-0.7c11-0.1,19.5,8.8,19,19.8l-5.3,113.7c-0.5,11-9.8,20.1-20.9,20.2l-22.2,0.4c-11,0.2-22.4-3.5-25.5-8.3c-3.1-4.8-5.6-13.2-5.6-18.8s4.1-10.6,9.1-11.2c5-0.6,9.4-4,9.7-7.6c0.3-3.6,4.2-6.4,8.7-6.1c4.5,0.3,8.1-2.2,8.1-5.6c0-3.3-8.7-8-19.5-10.3l-21.1-4.6c-10.7-2.4-28.2-2.7-39.1-0.6l-20.8,3.9c-10.8,2-19.6,5.9-19.6,8.7s3.4,5.3,7.6,5.6c4.2,0.3,7.6,3,7.6,6.1s6.4,6.3,14.3,7.1c7.9,0.8,14,6.5,13.8,12.7c-0.3,6.2-4.1,15.7-8.6,21.3c-4.5,5.6-8.1,17.7-8.1,26.9c0,9.3,2.5,17.2,5.6,17.8c3.1,0.6,5.9,9.9,6.3,21l2.7,77.1c0.4,11-2.5,24.2-6.4,29.6c-3.9,5.3-6.9,16.5-6.6,24.9c0.3,8.4,3,15.3,6.1,15.3c3.1,0,5.4,8.9,5.3,19.9l-0.4,26.2c-0.2,11,8.6,20.1,19.6,20.4l7.9,0.2c11,0.2,19.9-8.5,19.9-19.5v-21.2c0-11,8.9-20.1,19.9-20.3l19.2-0.3c11-0.2,20.1,8.6,20.3,19.6l0.3,17.1c0.2,11,9.3,19.7,20.3,19.4l35.4-1c11-0.3,20.1-9.5,20.3-20.5l0.3-21.2c0.2-11,7.9-20.2,17.1-20.4c9.3-0.3,16.8,8.4,16.8,19.4v11c0,11,8.9,20.1,19.9,20.3l8.9,0.2c11,0.2,19.6-8.5,19.2-19.5l-0.5-13c-0.4-11,1.7-19.9,4.8-19.9s4.7-8.2,3.5-18.3c-1.1-10.1-3.6-22.4-5.6-27.5c-2-5-3.7-18-3.9-29.1l-1.2-62.9c-0.2-11,1.4-19.7,3.7-19.4c2.2,0.3,3.8-7.5,3.5-17.3c-0.3-9.8-2.1-21-4-24.9c-2-3.9-3.8-12.1-4.1-18.3c-0.3-6.2,3.6-11.2,8.6-11.2c5.1,0,9.2-2.7,9.2-6.1c0-3.4,4.1-6.6,9.2-7.1c5.1-0.5,9.2-2.8,9.2-5.1c0-2.3-8.5-6.7-19-10l-21-6.5c-10.5-3.3-27.7-3.6-38.3-0.9l-12.2,3.2c-10.6,2.8-19.5,7.3-19.8,10.1s2.7,6,6.6,7.1c3.9,1.1,6.9,4.3,6.7,7.1c-0.3,2.8,3.1,5.5,7.6,6.1c4.5,0.6,7.9,7.6,7.6,15.8c-0.3,8.1-9.4,14.1-20.4,13.3l-0.9-0.1c-11-0.8-19.9-10.4-19.9-21.4V478.5c0-11,8.9-20.4,19.9-21L623,442.3c11-0.6,19.5,7.9,19,18.9l-5.3,120.9c-0.5,11-7,20.1-14.6,20.4c-7.6,0.3-14-2.7-14.3-6.6l-0.5-7.1c0,0-0.4-6.2-1-13.8c-0.5-7.6,2.9-14,7.6-14.3c4.8-0.3,9.3-3.7,10.2-7.6c0.8-3.9,4-7.3,7.1-7.6c3.1-0.3,5.6-3.5,5.6-7.2s-8.7-8.7-19.4-11.4l-15.1-3.7c-10.7-2.6-28-2.6-38.7,0l-27.4,6.8c-10.7,2.6-19.4,7.3-19.4,10.4s4.1,5.2,9.2,4.6c5.1-0.6,9.4,2.2,9.7,6.1c0.3,3.9,4.1,8.3,8.6,9.7c4.5,1.4,8.8,8,9.7,14.8c0.8,6.8-0.1,16.5-2,21.9c-2,5.3-3.3,18.3-3,29c0.3,10.7,1.6,21.6,3,24.4c1.4,2.8,2.7,14,2.9,25l1.3,74c0.2,11-1.7,24-4.2,29.1c-2.5,5-4.1,17.6-3.5,27.9c0.5,10.4,2.6,19.1,4.5,19.3c2,0.3,2.6,9.4,1.4,20.3l-0.8,7.2c-1.2,10.9,6.8,19.8,17.8,19.8h22.2c11,0,19.9-8.9,19.9-19.9v-7c0-11,7.1-19.7,15.8-19.4s15.8,9.5,15.8,20.5v3.8c0,11,8.9,19.9,19.9,19.9h45.5c11,0,19.2-8.9,18.4-19.9l-0.9-11.1c-0.9-11,5.2-19.6,13.7-19.3s15.4,9.5,15.7,20.5l0.2,6.9c0.3,11,9.4,19.9,20.4,19.9h13c11,0,19.2-8.9,18.4-19.9l-0.9-12.1c-0.9-11-0.4-20.3,1-20.9c1.4-0.5,3-9,3.5-18.8c0.6-9.8-1.2-22.6-4-28.5c-2.8-5.9-5-19.6-4.9-30.6l1.5-139.1c0.1-11,3.9-21.3,8.4-23c4.5-1.7,7.9-6.2,7.6-10.2c-0.3-3.9,2.2-7.3,5.6-7.6c3.4-0.3,6.1-3.7,6.1-7.6c0-3.9-8.7-9-19.5-11.4l-11.9-2.6c-10.7-2.4-28.1-2.1-38.8,0.7l-24.4,6.3c-10.7,2.8-18.9,6.6-18.3,8.6c0.5,2,4.6,4.3,9.1,5.1c4.5,0.8,8.1,4.5,8.1,8.1c0,3.6,5,7.7,11.2,9.1c6.2,1.4,10.3,6.8,9.2,12.2c-1.1,5.3-3.6,12.6-5.6,16.3c-2,3.6-11.1,7.1-20.4,7.6c-9.3,0.6-18.8-7.7-21.2-18.4l-13.5-59.8c-2.4-10.7-4.5-28.4-4.7-39.4l-0.5-32.3c-0.2-11,8.6-20.5,19.6-21.1l128-7.8c11-0.7,20-10.1,20.2-21.1l0.4-23.1c0.2-11-8.5-18.8-19.5-17.3L748,381.8c-10.9,1.4-27.2-2.3-36.5-8.3l-7.2-4.7c-9.2-6-16.7-14.8-16.7-19.5s3.2-9.3,7.1-10.2c3.9-0.8,7.3-6.7,7.5-13.1c0.2-6.4,9.3-12.2,20.3-12.9c62.1-4.2,110.7-7.4,132.6-8.9c5.7-0.4,3.6-20.9,12.2-38.1c8.6-17.3,79.8-25.2,100-39.5c16.6-11.8-2.5-43.7-5.9-66.3c-0.7-4.8,16.7-6.3,16.7-9.9c0-16.4,13.9-33.6,11.7-34.5C989.2,115.5,987.8,116.1,985.2,117.8z M238,742.8c0,11-2.5,23.3-5.6,27.5c-3.1,4.2-14.5,8.3-25.5,9.1l-2,0.1c-11,0.8-21.7-2.4-24-7.2c-2.3-4.8-4.5-17.5-5-28.5l-3.2-68c-0.5-11,8-20.1,19-20.2l26.2-0.4c11-0.2,19.9,8.6,19.9,19.6L238,742.8L238,742.8z M321,657l5.9-0.3c11-0.5,20,8.1,20.1,19.1l0.6,63.9c0.1,11-1.2,23.3-2.9,27.5c-1.7,4.2-10.6,7.2-19.8,6.6c-9.2-0.6-18.4-3.9-20.3-7.6c-2-3.6-3.5-15.5-3.5-26.5v-61.9C301.1,666.8,310.1,657.5,321,657z M409.3,406.7l-57.8,3c-11,0.6-20.1-2.1-20.4-6.1c-0.3-3.9-6-10.1-12.7-13.7c-6.8-3.6-12.2-10-12.2-14.3s3.2-7.6,7.2-7.6s7.3-6.4,7.6-14.2c0.2-7.8,9.3-14.8,20.3-15.5c17.5-1.1,35.5-2.3,54-3.5c11-0.7,21.6,7.5,23.8,18.2l6.5,33C427.5,396.9,420.3,406.1,409.3,406.7z M625.5,779.4c-6.2-0.8-12.1-4.5-13.2-8.1c-1.1-3.6-2.3-15.5-2.6-26.5l-2-75c-0.3-11,5.8-19.5,13.7-18.9c7.9,0.5,14.3,9.9,14.4,20.9l0.7,89.3C636.6,772,631.7,780.3,625.5,779.4z M627.4,373.5l-0.7,0.3c-10.2,4.1-18,10.4-17.4,14.1c0.6,3.6-7.9,7.2-18.9,7.8l-59.9,3.7c-11,0.7-18-7.5-15.6-18.2l7.9-35.6c2.4-10.7,13.2-20.1,24.2-20.8c21.2-1.4,41.7-2.8,62.1-4.2c11-0.7,20.5,4.4,21.2,11.4c0.7,7,4.3,12.7,7.9,12.7s6.8,4.8,7.1,10.6C645.6,361.2,637.6,369.4,627.4,373.5z M737.9,651.3c9.8-0.8,18,7.4,18.3,18.4l2,75c0.3,11-1.7,23.3-4.5,27.6c-2.8,4.2-10.5,7.2-17.3,6.6c-6.8-0.6-12.5-9.9-12.9-20.9l-2.8-85.2C720.4,661.8,728.1,652.2,737.9,651.3z"/></g>
</svg>